<svg width="24" height="28" viewBox="0 0 24 28" fill="none" xmlns="http://www.w3.org/2000/svg">
<path d="M22.3593 13.5271C21.3854 12.3897 20.9428 11.4041 20.9428 9.72953V9.16016C20.9428 6.97804 20.4405 5.57208 19.3486 4.16612C17.6657 1.98265 14.8325 0.666656 12.059 0.666656H11.941C9.22579 0.666656 6.48141 1.92222 4.76932 4.01706C3.61776 5.45122 3.05722 6.91761 3.05722 9.16016V9.72953C3.05722 11.4041 2.64378 12.3897 1.64064 13.5271C0.902533 14.365 0.666656 15.442 0.666656 16.6076C0.666656 17.7745 1.04962 18.8797 1.81821 19.7781C2.82135 20.855 4.23793 21.5426 5.68499 21.6621C7.78005 21.9011 9.87511 21.9911 12.0007 21.9911C14.1249 21.9911 16.2199 21.8407 18.3163 21.6621C19.762 21.5426 21.1786 20.855 22.1818 19.7781C22.949 18.8797 23.3333 17.7745 23.3333 16.6076C23.3333 15.442 23.0974 14.365 22.3593 13.5271Z" fill="#3E66FB"/>
<path opacity="0.4" d="M14.6783 23.6378C14.0117 23.4955 9.95015 23.4955 9.2836 23.6378C8.71379 23.7694 8.0976 24.0756 8.0976 24.747C8.13072 25.3875 8.50574 25.9529 9.0252 26.3114L9.02387 26.3127C9.69572 26.8365 10.4842 27.1695 11.3098 27.289C11.7497 27.3494 12.1976 27.3467 12.6535 27.289C13.4777 27.1695 14.2662 26.8365 14.938 26.3127L14.9367 26.3114C15.4561 25.9529 15.8312 25.3875 15.8643 24.747C15.8643 24.0756 15.2481 23.7694 14.6783 23.6378Z" fill="#3E66FB"/>
</svg>
